<svg id="Raggruppa_9" data-name="Raggruppa 9" xmlns="http://www.w3.org/2000/svg" xmlns:xlink="http://www.w3.org/1999/xlink" width="177.206" height="40" viewBox="0 0 177.206 40">
  <defs>
    <clipPath id="clip-path">
      <rect id="Rettangolo_1" data-name="Rettangolo 1" width="177.206" height="40" fill="#292625"/>
    </clipPath>
  </defs>
  <g id="Raggruppa_1" data-name="Raggruppa 1" transform="translate(0 0)" clip-path="url(#clip-path)">
    <path id="Tracciato_1" data-name="Tracciato 1" d="M59.046,39.073h-3.7v-23.6q0-5.708.455-12.292Q54.612,6.8,53.133,10.263L41.195,39.073H37.727L25.617,10.592Q24.366,7.683,22.946,3.4q.455,6.421.455,11.963V39.073H0V0H24.935L36.7,27.878q.569,1.372,2.786,7.353.284-.713,1.194-3.292t1.478-3.952L53.759,0h5.287Z" transform="translate(0 0)" fill="#292625"/>
    <path id="Tracciato_2" data-name="Tracciato 2" d="M296.483,39.3H235.237L218.052.228h4.892l11.972,28.1q1.674,3.951,2.9,7.793.386-.989,1.352-3.649t1.609-4.088L252.681.228h43.733Z" transform="translate(-119.277 -0.125)" fill="#292625"/>
    <path id="Tracciato_3" data-name="Tracciato 3" d="M173.289,39.3h-3.128V33.759a9.55,9.55,0,0,1-3.924,4.747,11.75,11.75,0,0,1-6.229,1.619,11.575,11.575,0,0,1-9.3-4.033q-3.43-4.033-3.43-10.893,0-6.8,3.43-10.865a11.418,11.418,0,0,1,9.192-4.061q7.353,0,10.043,6.091V.229h3.347ZM153.341,16.391q-2.607,3.265-2.607,8.753,0,5.6,2.607,8.89a8.463,8.463,0,0,0,7,3.293,8.636,8.636,0,0,0,7.107-3.238q2.607-3.238,2.607-8.891a14.506,14.506,0,0,0-2.47-8.561,8.347,8.347,0,0,0-7.3-3.512,8.432,8.432,0,0,0-6.942,3.266" transform="translate(-80.562 -0.125)" fill="#292625"/>
  </g>
</svg>
